<svg version="1.2" xmlns="http://www.w3.org/2000/svg" viewBox="0 0 500 100" width="500" height="100">
	<title>rswap</title>
	<style>
		.s0 { paint-order:stroke fill markers;stroke: #000000;stroke-width: 12;stroke-linejoin: round;;fill: #00ff66 } 
	</style>
	<path id="RockySwap" class="s0" aria-label="RockySwap"  d="m19.9 46.2v-17.5h25.6v17.5zm35.8 28.8v-11.6l-5-5.7 5-5.7v-29l-5-5.8h-41v57.8h10.2v-17.3h15.4l5.1 5.7 5.1 5.9v5.7zm17.2-11.6v-34.7h25.6v34.7zm30.8 11.6l5-5.7v-46.3l-5-5.8h-36l-5 5.8v46.3l5 5.7zm54 0l5.1-5.7v-11.6h-10.2v5.7h-25.6v-34.7h25.6v5.8h10.2v-11.5l-5.1-5.8h-35.9l-5.1 5.8v46.3l5.1 5.7zm21.3 0v-23h15.3l10.3 11.4v11.6h10.1v-17.3l-10.1-11.5 10.1-11.6v-17.4h-10.1v11.6l-10.3 11.6h-15.3v-23.2h-10.3v57.8zm69.4 0v-21.8l17.9-14.5v-21.5h-10.2v16.7l-12.9 9.7-12.7-9.7v-16.7h-10.2v21.5l17.9 14.5v21.8zm64.3 0l5.1-5.7v-23.2l-5.1-5.8h-30.7v-11.6h25.6v5.8h10.2v-11.5l-5.1-5.8h-35.9l-5.1 5.8v24.8l5.1 4.2h30.8v11.4h-25.6v-5.7h-10.3v11.6l5.1 5.7zm50.8 0h10.2l12.7-17.3v-40.5h-10.2v34.8l-7.6 11.4-7.8-11.4v-34.8h-10.2v34.8l-7.6 11.4-7.8-11.4v-34.8h-10.2v40.5l12.8 17.3h10.3l7.6-10.3zm38.8-28.9v-5.7l10.1-11.7h15.4v17.4zm0 28.9v-17.3h25.6v17.3h10.2v-57.8h-30.7l-15.3 17.4v40.4zm53.7-28.9v-17.4h25.6v17.4zm0 28.9v-17.3h30.7l5.1-5.8v-28.9l-5.1-5.8h-41v57.8z"/>
</svg>